<svg width="228" height="229" viewBox="0 0 228 229" fill="none" xmlns="http://www.w3.org/2000/svg">
<rect width="192" height="192" transform="translate(18 18)" fill="#EDEDED"/>
<path opacity="0.9" d="M114 114.4L152.998 54.2016L162.824 61.4693L124.964 117.271L114 114.4Z" fill="#FF1744"/>
<path opacity="0.8" d="M113.997 114.395L185.421 109.649L186.96 121.774L121.625 121.081L113.997 114.395Z" fill="#2979FF"/>
<path opacity="0.9" d="M113.97 114.434L143.593 180.857L130.925 184.579L106.742 124.273L113.97 114.434Z" fill="#00E676"/>
<path opacity="0.8" d="M114.003 114.465L42.5792 119.211L41.0395 107.086L106.375 107.78L114.003 114.465Z" fill="#FFD740"/>
<path d="M58.9148 63.5041L49.2416 53.933L46.0636 57.1696L55.7368 66.7407L58.9148 63.5041Z" fill="#FF4081"/>
<path d="M79.9996 77.4856L68.2868 84.3873L70.5788 88.3066L82.2916 81.4049L79.9996 77.4856Z" fill="#7C4DFF"/>
<path d="M116.139 48.085L102.995 44.6511L101.855 49.0492L114.999 52.4831L116.139 48.085Z" fill="#00B0FF"/>
<path d="M146.27 64.5946L136.736 74.3044L139.96 77.4947L149.494 67.785L146.27 64.5946Z" fill="#FFC400"/>
<path d="M182.705 109.612L175.829 97.8542L171.925 100.155L178.801 111.913L182.705 109.612Z" fill="#FF3D00"/>
<path d="M70.2442 124.421L57.1508 128.044L58.3542 132.425L71.4476 128.802L70.2442 124.421Z" fill="#1DE9B6"/>
<path d="M105.522 163.652L93.7112 156.92L91.476 160.872L103.287 167.604L105.522 163.652Z" fill="#D500F9"/>
<path d="M133.755 143.606L127.05 155.462L130.987 157.706L137.693 145.85L133.755 143.606Z" fill="#FF6D00"/>
<path d="M172.669 142.216L162.996 132.645L159.818 135.882L169.491 145.453L172.669 142.216Z" fill="#64DD17"/>
<path d="M79.9066 95.3609C81.7818 95.3474 83.291 93.8104 83.2774 91.928C83.2638 90.0456 81.7326 88.5306 79.8574 88.5441C77.9822 88.5576 76.473 90.0946 76.4866 91.977C76.5002 93.8594 78.0314 95.3744 79.9066 95.3609Z" fill="#FF4081"/>
<path d="M113.779 83.7545C115.654 83.741 117.163 82.204 117.149 80.3216C117.136 78.4392 115.605 76.9242 113.729 76.9377C111.854 76.9512 110.345 78.4882 110.359 80.3706C110.372 82.253 111.903 83.768 113.779 83.7545Z" fill="#00B0FF"/>
<path d="M147.897 106.232C149.772 106.219 151.281 104.682 151.267 102.799C151.254 100.917 149.723 99.4017 147.847 99.4153C145.972 99.4288 144.463 100.966 144.477 102.848C144.49 104.731 146.021 106.246 147.897 106.232Z" fill="#FFC400"/>
<path d="M102.871 140.643C104.746 140.629 106.255 139.092 106.241 137.21C106.228 135.327 104.697 133.812 102.821 133.826C100.946 133.839 99.437 135.376 99.4506 137.259C99.4642 139.141 100.995 140.656 102.871 140.643Z" fill="#7C4DFF"/>
<path d="M136.743 129.036C138.618 129.023 140.127 127.486 140.113 125.603C140.1 123.721 138.569 122.206 136.693 122.22C134.818 122.233 133.309 123.77 133.323 125.652C133.336 127.535 134.867 129.05 136.743 129.036Z" fill="#FF3D00"/>
<path d="M68.9986 152.249C70.8738 152.236 72.383 150.699 72.3694 148.816C72.3558 146.934 70.8246 145.419 68.9494 145.432C67.0742 145.446 65.565 146.983 65.5786 148.865C65.5922 150.748 67.1234 152.263 68.9986 152.249Z" fill="#1DE9B6"/>
<path d="M170.369 83.3461C172.244 83.3325 173.753 81.7956 173.739 79.9132C173.726 78.0307 172.195 76.5157 170.319 76.5293C168.444 76.5428 166.935 78.0798 166.949 79.9622C166.962 81.8446 168.493 83.3596 170.369 83.3461Z" fill="#D500F9"/>
<path d="M91.282 103.232L98.122 110L91.3804 116.866L84.5404 110.098L91.282 103.232Z" fill="#FF6D00"/>
<path d="M125.154 91.6257L131.994 98.3935L125.252 105.259L118.412 98.4915L125.154 91.6257Z" fill="#64DD17"/>
<path d="M148.2 148.269L155.04 155.037L148.298 161.902L141.458 155.135L148.2 148.269Z" fill="#FF4081"/>
<path d="M57.82 171.645L64.66 178.413L57.9184 185.279L51.0784 178.511L57.82 171.645Z" fill="#00B0FF"/>
<path d="M104.911 58.0345L107.582 65.7764L114.154 67.4934L108.063 72.9459L108.544 80.1154L100.921 73.428L91.0178 75.5368L94.9186 69.512L92.2472 61.7701L98.8194 63.4871L104.911 58.0345Z" fill="#FFD740"/>
<path d="M154.189 115.51L161.531 119.088L167.387 115.638L166.921 123.817L172.311 128.546L162.211 129.228L156.694 137.748L155.208 130.719L147.866 127.14L153.723 123.69L154.189 115.51Z" fill="#FF1744"/>
</svg>
